# xmcd
#
# Track frame offsets:
#	183
#	19158
#	36683
#	53358
#	68545
#	87333
#	106308
#	122583
#
# Disc length: 1834 seconds
#
# Revision: 1
# Processed by: cddbd v1.5.2PL0 Copyright (c) Steve Scherf et al.
# Submitted via: audiograbber 1.83.01
#
DISCID=60072808
DTITLE=DYANGO - Contigo en la distancia
DYEAR=1995
DGENRE=BALADAS
TTITLE0=ÓDIAME
TTITLE1=FALLASTE CORAZÓN
TTITLE2=ELLA
TTITLE3=LA BARCA
TTITLE4=NOSOTROS
TTITLE5=EL DÍA QUE ME QUIERAS
TTITLE6=CONTIGO EN LA DISTANCIA
TTITLE7=VAYA CON DIOS
EXTD=GRABACIONES ORIGINALES DE 1977\nRECOPILACIÓN REALIZADA POR EMI EN 1995
EXTT0=
EXTT1=
EXTT2=
EXTT3=
EXTT4=
EXTT5=
EXTT6=
EXTT7=
PLAYORDER=
